<svg fill="#fff" id="Capa_1" enable-background="new 0 0 512 512" height="512" viewBox="0 0 512 512" width="512" xmlns="http://www.w3.org/2000/svg"><path d="m451.089 150.284-119.257-147.5c-1.424-1.761-3.567-2.784-5.832-2.784h-236.111c-16.898 0-30.646 13.748-30.646 30.646v450.707c0 16.898 13.748 30.646 30.646 30.646h261.111c9.674 0 9.674-15 0-15h-261.111c-8.627 0-15.646-7.019-15.646-15.646v-450.707c0-8.627 7.019-15.646 15.646-15.646h227.553l-1.186 115.217c-.181 17.57 14.474 32.381 32.049 32.381h89.452v318.756c0 8.628-7.019 15.646-15.646 15.646h-26.111c-9.674 0-9.674 15 0 15h26.111c16.898 0 30.646-13.748 30.646-30.646v-326.354c0-1.717-.589-3.381-1.668-4.716zm-114.903-7.743c-3.227-3.261-4.979-7.582-4.931-12.17l1.062-103.13 97.311 120.356h-81.322c-4.589.001-8.892-1.795-12.12-5.056z"/><path d="m182.129 252.5c-4.142 0-7.5 3.357-7.5 7.5v78.58c0 16.604 18.579 27.342 32.969 19.034l118.784-68.58c14.38-8.302 14.389-29.761 0-38.068l-118.784-68.58c-14.412-8.324-32.969 2.474-32.969 19.034v19.58c0 9.675 15 9.675 15 0v-19.58c0-5.182 5.829-8.725 10.469-6.044l118.784 68.58c4.56 2.633 4.597 9.434 0 12.088l-118.784 68.58c-4.601 2.655-10.469-.848-10.469-6.044v-78.58c0-4.143-3.358-7.5-7.5-7.5z"/><path d="m113.5 452.5c0 4.143 3.358 7.5 7.5 7.5h270c9.674 0 9.674-15 0-15h-270c-4.142 0-7.5 3.357-7.5 7.5z"/></svg>